<?xml version="1.0" encoding="UTF-8"?>
<!DOCTYPE svg PUBLIC "-//W3C//DTD SVG 1.1//EN" "http://www.w3.org/Graphics/SVG/1.1/DTD/svg11.dtd">
<!-- Creator: CorelDRAW X7 -->
<?xml-stylesheet href="ambulancia.css" type="text/css"?>
<svg xmlns="http://www.w3.org/2000/svg" xml:space="preserve" width="200px" height="115px" version="1.1" style="shape-rendering:geometricPrecision; text-rendering:geometricPrecision; image-rendering:optimizeQuality; fill-rule:evenodd; clip-rule:evenodd"
viewBox="0 0 29 17"
 xmlns:xlink="http://www.w3.org/1999/xlink">
 <g id="Camada_x0020_1">
  <metadata id="CorelCorpID_0Corel-Layer"/>
  <polygon class="fil0 str0" points="0,2 22,2 26,7 29,9 29,13 0,13 "/>
  <path class="fil1" d="M28 11c0,0 1,1 1,1 0,0 -1,0 -1,0 0,0 -1,0 -1,0 0,0 1,-1 1,-1zm-27 0c1,0 1,1 1,1 0,0 0,0 -1,0 0,0 0,0 0,0 0,0 0,-1 0,-1z"/>
  <path class="fil2" d="M19 0c0,0 1,1 1,1 0,0 0,1 0,1l-2 0c0,0 0,-1 0,-1 0,0 0,-1 1,-1zm-16 4l1 0 0 1 1 0 0 1 -1 0 0 1 -1 0 0 -1 0 0 0 -1 0 0 0 -1zm1 0c1,0 2,1 2,2 0,1 -1,2 -2,2 -1,0 -2,-1 -2,-2 0,-1 1,-2 2,-2zm-3 5l27 0 0 2 -27 0 0 -2z"/>
  <path class="fil3" d="M17 4l4 0 3 4 -7 0 0 -4zm-10 0l9 0 0 4 -9 0 0 -4z"/>
  <path class="fil4" d="M22 11c2,0 3,1 3,2l4 0c0,0 0,0 0,0l0 1c0,0 0,0 0,0l-4 0c0,2 -1,3 -3,3 -1,0 -2,-1 -2,-3l-10 0c0,2 -1,3 -3,3 -1,0 -3,-1 -3,-3l-3 0c-1,0 -1,0 -1,0l0 -1c0,0 0,0 1,0l4 0c0,-1 1,-2 2,-2 1,0 2,1 3,2l10 0c0,-1 1,-2 2,-2z"/>
  <path class="fil5" d="M7 12c1,0 2,1 2,2 0,1 -1,1 -2,1 -1,0 -1,0 -1,-1 0,-1 0,-2 1,-2zm15 0c1,0 2,1 2,2 0,1 -1,1 -2,1 0,0 -1,0 -1,-1 0,-1 1,-2 1,-2z"/>
  <path class="fil6" d="M13 8l-1 0 4 -4 0 1 -3 3zm10 0l-1 0 1 -1 1 0 -1 1zm-1 0l-1 0 1 -3 1 1 -1 2zm-8 0l0 0 2 -2 0 0 -2 2z"/>
 </g>
</svg>
