<?xml version="1.0" encoding="UTF-8"?>
<!DOCTYPE svg PUBLIC "-//W3C//DTD SVG 1.1//EN" "http://www.w3.org/Graphics/SVG/1.1/DTD/svg11.dtd">
<!-- Creator: CorelDRAW X7 -->
<?xml-stylesheet href="helicoptero.css" type="text/css"?>
<svg xmlns="http://www.w3.org/2000/svg" xml:space="preserve" width="200px" height="104px" version="1.1" style="shape-rendering:geometricPrecision; text-rendering:geometricPrecision; image-rendering:optimizeQuality; fill-rule:evenodd; clip-rule:evenodd"
viewBox="0 0 25 13"
 xmlns:xlink="http://www.w3.org/1999/xlink">
 <g id="Camada_x0020_1">
  <metadata id="CorelCorpID_0Corel-Layer"/>
  <g id="_1410370032">
   <path class="fil0 str0" d="M0 7l0 -5 4 3 8 0c1,-3 3,-3 7,-3 4,1 6,4 6,7 0,1 0,1 -1,2l-12 0c0,0 -1,-1 -1,-1l0 -3 -7 0c-1,1 -2,1 -4,0z"/>
   <path class="fil1" d="M12 8l12 0c0,1 0,1 -1,2l-10 0c-1,-1 -1,-1 -1,-2zm2 -5c1,0 2,1 2,2 0,2 -1,2 -2,2 -1,0 -2,0 -2,-2 0,-1 1,-2 2,-2zm0 1l1 0 0 1 1 0 0 1 -1 0 0 1 -1 0 0 -1 -1 0 0 -1 1 0 0 -1z"/>
   <path class="fil2" d="M17 3c4,0 6,2 6,5l-6 0 0 -5z"/>
   <path class="fil3" d="M22 5c0,0 0,0 1,0l-2 3 -2 0 3 -3zm1 1c0,0 0,0 0,0l-1 2 -1 0 2 -2z"/>
   <path class="fil4 str1" d="M13 12l2 0 0 -1 1 0 0 1 3 0 0 -1 1 0 0 1 1 0c1,-1 3,1 0,1l-8 0 0 -1zm-3 -11l13 -1c0,0 0,0 0,0l0 1c0,0 0,0 0,0l-13 1c0,0 0,0 0,0l0 -1c0,0 0,0 0,0z"/>
   <path class="fil5" d="M16 0l1 0c0,0 0,0 0,0l0 2c0,0 0,0 0,0 0,0 -1,0 -1,0 0,0 0,0 0,0l0 -2c0,0 0,0 0,0z"/>
  </g>
 </g>
</svg>
