<?xml version="1.0" encoding="UTF-8"?>
<!DOCTYPE svg PUBLIC "-//W3C//DTD SVG 1.1//EN" "http://www.w3.org/Graphics/SVG/1.1/DTD/svg11.dtd">
<!-- Creator: CorelDRAW X7 -->
<?xml-stylesheet href="hospital.css" type="text/css"?>
<svg xmlns="http://www.w3.org/2000/svg" xml:space="preserve" width="500px" height="268px" version="1.1" style="shape-rendering:geometricPrecision; text-rendering:geometricPrecision; image-rendering:optimizeQuality; fill-rule:evenodd; clip-rule:evenodd"
viewBox="0 0 633 339"
 xmlns:xlink="http://www.w3.org/1999/xlink">
 <g id="Camada_x0020_1">
  <metadata id="CorelCorpID_0Corel-Layer"/>
  <polygon class="fil0 str0" points="603,186 501,186 501,82 346,82 346,186 244,186 244,192 251,192 251,338 346,338 350,338 498,338 501,338 597,338 597,192 603,192 "/>
  <rect class="fil1" x="266" y="205" width="25.4692" height="35.6571"/>
  <polygon class="fil2" points="277,240 271,240 292,216 292,223 "/>
  <polygon class="fil2" points="285,240 281,240 292,228 292,232 "/>
  <polygon class="fil3" points="253,190 346,190 347,190 347,191 347,334 346,334 346,191 253,191 "/>
  <rect class="fil4" x="261" y="243" width="75.3891" height="3.31092"/>
  <rect class="fil1" x="305" y="205" width="25.4692" height="35.6571"/>
  <polygon class="fil2" points="316,240 309,240 330,216 330,223 "/>
  <polygon class="fil2" points="323,240 320,240 331,228 331,232 "/>
  <rect class="fil1" x="266" y="260" width="25.4692" height="35.6571"/>
  <polygon class="fil2" points="277,295 271,295 292,271 292,279 "/>
  <polygon class="fil2" points="285,295 281,295 292,283 292,287 "/>
  <rect class="fil4" x="261" y="298" width="75.3891" height="3.31092"/>
  <rect class="fil1" x="305" y="260" width="25.4692" height="35.6571"/>
  <polygon class="fil2" points="316,295 309,295 330,271 330,279 "/>
  <polygon class="fil2" points="323,295 320,295 331,283 331,287 "/>
  <g id="_1500518032">
   <rect class="fil1" x="556" y="205" width="25.4692" height="35.6571"/>
   <polygon class="fil2" points="571,240 577,240 556,216 556,223 "/>
   <polygon class="fil2" points="563,240 567,240 556,228 556,232 "/>
  </g>
  <polygon class="fil3" points="595,190 502,190 501,190 501,191 501,334 502,334 502,191 595,191 "/>
  <rect class="fil4" x="511" y="243" width="75.3891" height="3.31092"/>
  <g id="_1500478864">
   <rect class="fil1" x="517" y="205" width="25.4692" height="35.6571"/>
   <polygon class="fil2" points="532,240 539,240 517,216 517,223 "/>
   <polygon class="fil2" points="525,240 528,240 517,228 517,232 "/>
  </g>
  <rect class="fil1" x="556" y="260" width="25.4692" height="35.6571"/>
  <polygon class="fil2" points="571,295 577,295 556,271 556,279 "/>
  <polygon class="fil2" points="563,295 567,295 556,283 556,287 "/>
  <rect class="fil4" x="511" y="298" width="75.3891" height="3.31092"/>
  <rect class="fil1" x="517" y="260" width="25.4692" height="35.6571"/>
  <polygon class="fil2" points="532,295 539,295 517,271 517,279 "/>
  <polygon class="fil2" points="525,295 528,295 517,283 517,287 "/>
  <g id="_1500500560">
   <rect class="fil1" x="393" y="94" width="25.4692" height="35.6571"/>
   <polygon class="fil2" points="407,130 414,130 393,106 393,113 "/>
   <polygon class="fil2" points="400,130 404,130 393,118 393,121 "/>
  </g>
  <rect class="fil4" x="354" y="133" width="138.298" height="3.31092"/>
  <g id="_1500491600">
   <rect class="fil1" x="360" y="94" width="25.4692" height="35.6571"/>
   <polygon class="fil2" points="375,130 382,130 360,106 360,113 "/>
   <polygon class="fil2" points="368,130 371,130 360,118 360,121 "/>
  </g>
  <g id="_1500507216">
   <rect class="fil1" x="461" y="94" width="25.4692" height="35.6571"/>
   <polygon class="fil2" points="476,130 482,130 461,106 461,113 "/>
   <polygon class="fil2" points="468,130 472,130 461,118 461,121 "/>
  </g>
  <g id="_1500522032">
   <rect class="fil1" x="429" y="94" width="25.4692" height="35.6571"/>
   <polygon class="fil2" points="443,130 450,130 429,106 429,113 "/>
   <polygon class="fil2" points="436,130 439,130 429,118 429,121 "/>
  </g>
  <g id="_1500500400">
   <rect class="fil1" x="393" y="149" width="25.4692" height="35.6571"/>
   <polygon class="fil2" points="407,185 414,185 393,160 393,168 "/>
   <polygon class="fil2" points="400,185 404,185 393,172 393,176 "/>
  </g>
  <rect class="fil4" x="354" y="187" width="138.298" height="3.31092"/>
  <g id="_1500507120">
   <rect class="fil1" x="360" y="149" width="25.4692" height="35.6571"/>
   <polygon class="fil2" points="375,185 382,185 360,160 360,168 "/>
   <polygon class="fil2" points="368,185 371,185 360,172 360,176 "/>
  </g>
  <g id="_1500500016">
   <rect class="fil1" x="461" y="149" width="25.4692" height="35.6571"/>
   <polygon class="fil2" points="476,185 482,185 461,160 461,168 "/>
   <polygon class="fil2" points="468,185 472,185 461,172 461,176 "/>
  </g>
  <g id="_1500477392">
   <rect class="fil1" x="429" y="149" width="25.4692" height="35.6571"/>
   <polygon class="fil2" points="443,185 450,185 429,160 429,168 "/>
   <polygon class="fil2" points="436,185 439,185 429,172 429,176 "/>
  </g>
  <g id="_1500523440">
   <rect class="fil1" x="393" y="205" width="25.4692" height="35.6571"/>
   <polygon class="fil2" points="407,241 414,241 393,217 393,224 "/>
   <polygon class="fil2" points="400,241 404,241 393,229 393,232 "/>
  </g>
  <rect class="fil4" x="354" y="244" width="138.298" height="3.31092"/>
  <g id="_1500493936">
   <rect class="fil1" x="360" y="205" width="25.4692" height="35.6571"/>
   <polygon class="fil2" points="375,241 382,241 360,217 360,224 "/>
   <polygon class="fil2" points="368,241 371,241 360,229 360,232 "/>
  </g>
  <g id="_1500511408">
   <rect class="fil1" x="461" y="205" width="25.4692" height="35.6571"/>
   <polygon class="fil2" points="476,241 482,241 461,217 461,224 "/>
   <polygon class="fil2" points="468,241 472,241 461,229 461,232 "/>
  </g>
  <g id="_1500480784">
   <rect class="fil1" x="429" y="205" width="25.4692" height="35.6571"/>
   <polygon class="fil2" points="443,241 450,241 429,217 429,224 "/>
   <polygon class="fil2" points="436,241 439,241 429,229 429,232 "/>
  </g>
  <rect class="fil1" x="374" y="263" width="47.5495" height="75.0573"/>
  <polygon class="fil2" points="374,263 422,263 374,312 "/>
  <rect class="fil5" x="417" y="292" width="2.54685" height="10.1876"/>
  <rect class="fil1" x="422" y="263" width="47.5495" height="75.0573"/>
  <polygon class="fil2" points="422,263 470,263 422,312 "/>
  <rect class="fil5" x="425" y="292" width="2.54685" height="10.1876"/>
  <rect class="fil6" x="347" y="45" width="154.344" height="37.1852"/>
  <polygon class="fil7" points="363,57 483,57 501,72 501,82 372,82 363,69 "/>
  <polygon class="fil8" points="362,71 362,52 366,52 366,60 374,60 374,52 377,52 377,71 374,71 374,63 366,63 366,71 "/>
  <path id="1" class="fil8" d="M381 62c0,-2 0,-4 0,-5 1,-1 1,-2 2,-2 1,-1 2,-2 3,-2 1,-1 2,-1 4,-1 2,0 5,1 6,3 2,1 3,4 3,7 0,3 -1,5 -3,7 -1,2 -4,3 -6,3 -3,0 -5,-1 -7,-3 -2,-2 -2,-4 -2,-7zm3 0c0,2 1,4 2,5 1,1 2,1 4,1 1,0 2,0 3,-1 1,-1 2,-3 2,-5 0,-2 -1,-4 -1,-5 -1,-1 -3,-2 -4,-2 -2,0 -3,1 -4,2 -1,1 -2,3 -2,5z"/>
  <path id="2" class="fil8" d="M401 65l4 0c0,1 0,2 1,3 1,0 2,0 3,0 1,0 2,0 2,0 1,-1 1,-1 1,-2 0,-1 0,-1 0,-1 0,-1 -1,-1 -1,-1 -1,0 -2,-1 -3,-1 -2,0 -4,-1 -5,-2 -1,-1 -1,-2 -1,-4 0,-1 0,-1 0,-2 1,-1 2,-2 3,-2 1,-1 2,-1 3,-1 3,0 5,1 6,2 1,1 2,2 2,4l-4 0c0,-1 -1,-2 -1,-2 -1,-1 -2,-1 -3,-1 -1,0 -2,0 -2,1 -1,0 -1,1 -1,1 0,1 0,1 1,1 0,1 1,1 3,2 2,0 4,0 4,1 1,0 2,1 2,2 1,1 1,2 1,3 0,1 0,2 -1,3 0,1 -1,2 -2,2 -1,0 -3,1 -4,1 -3,0 -5,-1 -6,-2 -1,-1 -2,-3 -2,-5z"/>
  <path id="3" class="fil8" d="M419 71l0 -19 7 0c2,0 3,1 4,1 1,0 2,1 3,2 1,1 1,2 1,3 0,1 0,2 -1,3 0,1 -1,2 -1,2 -1,0 -2,1 -2,1 -1,0 -2,0 -4,0l-3 0 0 7 -4 0zm4 -15l0 5 2 0c2,0 3,0 3,0 1,0 1,-1 2,-1 0,-1 0,-1 0,-2 0,0 0,-1 -1,-1 0,-1 0,-1 -1,-1 -1,0 -1,0 -3,0l-2 0z"/>
  <polygon id="4" class="fil8" points="437,71 437,52 441,52 441,71 "/>
  <polygon id="5" class="fil8" points="449,71 449,56 443,56 443,52 458,52 458,56 453,56 453,71 "/>
  <path id="6" class="fil8" d="M476 71l-4 0 -2 -4 -8 0 -1 4 -4 0 7 -19 4 0 8 19zm-7 -7l-3 -7 -3 7 6 0z"/>
  <polygon id="7" class="fil8" points="478,71 478,53 482,53 482,68 491,68 491,71 "/>
  <circle class="fil6" cx="424" cy="20" r="20"/>
  <rect class="fil9" x="422" y="40" width="4.60011" height="5.43518"/>
  <polygon class="fil0" points="420,8 428,8 428,16 436,16 436,24 428,24 428,32 420,32 420,24 412,24 412,16 420,16 "/>
  <path class="fil10" d="M614 304l3 0 0 35 -3 0 0 -35zm-598 0l4 0 0 35 -4 0 0 -35zm184 6l3 0 0 29 -3 0 0 -29zm21 -6l3 0 0 35 -3 0 0 -35z"/>
  <path class="fil11" d="M19 265c10,0 17,13 17,23 0,10 -8,18 -18,18 -10,0 -18,-8 -18,-18 0,-10 9,-23 19,-23zm598 0c10,0 16,13 16,23 0,10 -8,18 -18,18 -10,0 -18,-8 -18,-18 0,-10 10,-23 20,-23zm-414 12c8,0 13,11 13,19 0,9 -6,15 -15,15 -8,0 -15,-6 -15,-15 0,-8 8,-19 17,-19z"/>
  <path class="fil12" d="M195 339c26,0 51,0 76,0 -2,-13 -11,-24 -18,-11 -5,-10 -13,-8 -16,1 -10,-6 -15,-4 -20,4 -5,-4 -8,-3 -10,6 -3,-9 -12,-8 -12,0zm29 -85c10,0 16,24 16,34 0,10 -8,18 -18,18 -10,0 -18,-8 -18,-18 0,-10 10,-34 20,-34z"/>
 </g>
</svg>
